<?xml version="1.0" standalone="no"?>
<svg height="600" width="575" viewBox="0 0 575 600" xmlns="http://www.w3.org/2000/svg" xmlns:xlink="http://www.w3.org/1999/xlink">
<title>Peace - Shalom - Salam (Salaam), trilingual graphic</title>
<g transform="translate(6,599)scale(0.41,-0.41)" style="stroke-width:8"><g style="fill:#F89999;stroke:#C57777">
<path id="e" d="M442,102c-29,0-135-14-135,21c0,30,89,21,123,21v72c-32,0-123-10-123,21c0,35,108,21,123,21v78c-27,0-64,5-100,5-65,0-127-9-127-162c0-143,51-160,122-160c35,0,72,5,99,5Z"/>
<use x="892" xlink:href="#e"/>
<path d="M1059,102c-62,0-169-27-169,74c0,35,17,69,43,69c42,0,66-34,47-102c51,0,82,46,82,100c0,59-31,98-124,98-30,0-141,0-141-175c0-124,58-148,135-148c39,0,80,6,109,6Z
M779,67c0,28-31,14-31,75c0,35,11,73,11,104c0,28,7,65-18,84-22,15-75,6-102,6-40,0-96,8-126-12-58-39-48-203-24-258c18-45,156-72,156-12c27,0,56-36,87-36c28,0,47,32,47,49Z
M536,849c0,53-40,105-90,120l-16,3h-404l24-18v-882l-36-48h168l-36,48v798c0,3,3,6,6,6h244c39,0,48-19,48-32c0-27-45-43-64-51-80-35-120-65-198-19-13-36-10-70,30-84-48-73-21-149,72-150-4,16-17,35-17,53c0,120,269,115,269,256Z
M673,184c0-39-18-77-60-77-38,0-57,41-57,80c0,32,12,72,59,72c39,0,57-37,58-75Z"/></g>
<path style="fill:#8088DA;stroke:#6060C0" d="M1328,1284v24h-112v-24l18-6v-288c0-28-2-68-33-68-31,0-33,43-33,69v293h12v24h-110v-24l18-6v-355c0-31-3-73-33-73-30,0-33,43-33,74v360h12v24h-108v-24l18-6v-576l264,124c64,34,108,43,108,137v321Z
M881,1193c0,37-5,77-5,109c0,3-3,6-6,6h-132c-3,0-6,3-6,6v114c0,3-3,6-6,6h-108v-24l24-6v-186c0-3,3-6,6-6h132c3,0,6-3,6-6c0-80-93-97-150-78l-6-18c43-32,1-86,0-126c23,2,39,18,60,28c116,60,191,55,191,181Z
M578,906v396c0,3-3,6-6,6h-102v-24l18-6v-276c34-18,72-63,84-96Z
M422,1020v222c0,40-13,66-96,66h-300l24-36v-252Z
M332,1122c0-3-3-6-6-6h-180c-3,0-6,3-6,6v84c0,3,3,6,6,6c43,0,163,20,186-24c6-14,0-51,0-66Z"/>
<path style="fill:#70D770;stroke:#4CB04C" d="M1328,512v322l-90-36v-276c0-14-4-36-12-36h-48v270l-90-36v-234h-60v192l-90-36v-156h-54c-3,0-6,3-6,6v558h-12l-72-36v-408c0-40,0-119-71-119h-35c-60,8-79-65-86-103h198l54,30c23-38,68-30,108-30h228c82,0,138,20,138,128Z
M728,510v456h-12l-72-36v-384Z
M575,461v313c0,3-3,6-6,6-3,0-5-4-6-6-35-88-149-81-204-144-31-35-17-101-24-144-141,0-166-80-156-204h6c28,91,97,103,174,103h119c69,0,97,15,97,76Z
M493,541c0-30-16-55-38-55-16,0-35,15-35,41c0,32,28,65,67,65c3,0,6-3,6-6Z"/></g></svg>